<mxfile host="app.diagrams.net" agent="Mozilla/5.0 (Windows NT 10.0; Win64; x64) AppleWebKit/537.36 (KHTML, like Gecko) Chrome/135.0.0.0 Safari/537.36" version="26.2.12">
  <diagram name="Page-1" id="b2G2cBfw3tKi4PA59Fiy">
    <mxGraphModel dx="2110" dy="535" grid="1" gridSize="10" guides="1" tooltips="1" connect="1" arrows="1" fold="1" page="1" pageScale="1" pageWidth="827" pageHeight="1169" math="0" shadow="0">
      <root>
        <mxCell id="0" />
        <mxCell id="1" parent="0" />
        <mxCell id="7OqduelqmPpx-q8XnIWb-1" value="Customer&amp;nbsp;" style="whiteSpace=wrap;html=1;align=center;" vertex="1" parent="1">
          <mxGeometry y="240" width="100" height="40" as="geometry" />
        </mxCell>
        <mxCell id="7OqduelqmPpx-q8XnIWb-2" value="Movies&amp;nbsp;" style="whiteSpace=wrap;html=1;align=center;" vertex="1" parent="1">
          <mxGeometry x="620" y="240" width="100" height="40" as="geometry" />
        </mxCell>
        <mxCell id="7OqduelqmPpx-q8XnIWb-3" value="id" style="ellipse;whiteSpace=wrap;html=1;align=center;fontStyle=4;" vertex="1" parent="1">
          <mxGeometry x="-140" y="150" width="100" height="40" as="geometry" />
        </mxCell>
        <mxCell id="7OqduelqmPpx-q8XnIWb-4" value="phone number" style="ellipse;whiteSpace=wrap;html=1;align=center;fontStyle=4;" vertex="1" parent="1">
          <mxGeometry x="-140" y="190" width="100" height="40" as="geometry" />
        </mxCell>
        <mxCell id="7OqduelqmPpx-q8XnIWb-6" value="name" style="ellipse;whiteSpace=wrap;html=1;align=center;" vertex="1" parent="1">
          <mxGeometry x="-140" y="230" width="100" height="40" as="geometry" />
        </mxCell>
        <mxCell id="7OqduelqmPpx-q8XnIWb-7" value="email" style="ellipse;shape=doubleEllipse;margin=3;whiteSpace=wrap;html=1;align=center;" vertex="1" parent="1">
          <mxGeometry x="-140" y="270" width="100" height="40" as="geometry" />
        </mxCell>
        <mxCell id="7OqduelqmPpx-q8XnIWb-13" value="" style="endArrow=none;html=1;rounded=0;entryX=0;entryY=0.5;entryDx=0;entryDy=0;exitX=0.998;exitY=0.68;exitDx=0;exitDy=0;exitPerimeter=0;" edge="1" parent="1" source="7OqduelqmPpx-q8XnIWb-3">
          <mxGeometry relative="1" as="geometry">
            <mxPoint x="-40" y="189.5" as="sourcePoint" />
            <mxPoint y="260" as="targetPoint" />
          </mxGeometry>
        </mxCell>
        <mxCell id="7OqduelqmPpx-q8XnIWb-14" value="" style="endArrow=none;html=1;rounded=0;exitX=1;exitY=0.5;exitDx=0;exitDy=0;" edge="1" parent="1" source="7OqduelqmPpx-q8XnIWb-4">
          <mxGeometry relative="1" as="geometry">
            <mxPoint x="-30" y="199.5" as="sourcePoint" />
            <mxPoint y="260" as="targetPoint" />
          </mxGeometry>
        </mxCell>
        <mxCell id="7OqduelqmPpx-q8XnIWb-15" value="" style="endArrow=none;html=1;rounded=0;exitX=1;exitY=0.5;exitDx=0;exitDy=0;entryX=0;entryY=0.5;entryDx=0;entryDy=0;" edge="1" parent="1" source="7OqduelqmPpx-q8XnIWb-6">
          <mxGeometry relative="1" as="geometry">
            <mxPoint x="-30" y="240" as="sourcePoint" />
            <mxPoint y="260" as="targetPoint" />
          </mxGeometry>
        </mxCell>
        <mxCell id="7OqduelqmPpx-q8XnIWb-16" value="" style="endArrow=none;html=1;rounded=0;entryX=0;entryY=0.5;entryDx=0;entryDy=0;exitX=1;exitY=0.5;exitDx=0;exitDy=0;" edge="1" parent="1" source="7OqduelqmPpx-q8XnIWb-7">
          <mxGeometry relative="1" as="geometry">
            <mxPoint x="-30" y="199.5" as="sourcePoint" />
            <mxPoint y="260" as="targetPoint" />
            <Array as="points" />
          </mxGeometry>
        </mxCell>
        <mxCell id="7OqduelqmPpx-q8XnIWb-17" value="name" style="ellipse;whiteSpace=wrap;html=1;align=center;" vertex="1" parent="1">
          <mxGeometry x="770" y="220" width="100" height="40" as="geometry" />
        </mxCell>
        <mxCell id="7OqduelqmPpx-q8XnIWb-18" value="id (10 digit barcode)" style="ellipse;whiteSpace=wrap;html=1;align=center;fontStyle=4;" vertex="1" parent="1">
          <mxGeometry x="770" y="180" width="100" height="40" as="geometry" />
        </mxCell>
        <mxCell id="7OqduelqmPpx-q8XnIWb-19" value="year" style="ellipse;whiteSpace=wrap;html=1;align=center;" vertex="1" parent="1">
          <mxGeometry x="770" y="260" width="100" height="40" as="geometry" />
        </mxCell>
        <mxCell id="7OqduelqmPpx-q8XnIWb-20" value="status (in rental / in stock / lost)&amp;nbsp;" style="ellipse;whiteSpace=wrap;html=1;align=center;" vertex="1" parent="1">
          <mxGeometry x="770" y="300" width="100" height="40" as="geometry" />
        </mxCell>
        <mxCell id="7OqduelqmPpx-q8XnIWb-21" value="" style="endArrow=none;html=1;rounded=0;" edge="1" parent="1">
          <mxGeometry relative="1" as="geometry">
            <mxPoint x="720" y="260" as="sourcePoint" />
            <mxPoint x="770" y="199.5" as="targetPoint" />
          </mxGeometry>
        </mxCell>
        <mxCell id="7OqduelqmPpx-q8XnIWb-23" value="" style="endArrow=none;html=1;rounded=0;entryX=0;entryY=0.5;entryDx=0;entryDy=0;" edge="1" parent="1" target="7OqduelqmPpx-q8XnIWb-17">
          <mxGeometry relative="1" as="geometry">
            <mxPoint x="720" y="260" as="sourcePoint" />
            <mxPoint x="880" y="260" as="targetPoint" />
          </mxGeometry>
        </mxCell>
        <mxCell id="7OqduelqmPpx-q8XnIWb-24" value="" style="endArrow=none;html=1;rounded=0;entryX=0;entryY=0.5;entryDx=0;entryDy=0;" edge="1" parent="1">
          <mxGeometry relative="1" as="geometry">
            <mxPoint x="720" y="260" as="sourcePoint" />
            <mxPoint x="770" y="320" as="targetPoint" />
          </mxGeometry>
        </mxCell>
        <mxCell id="7OqduelqmPpx-q8XnIWb-25" value="" style="endArrow=none;html=1;rounded=0;entryX=0;entryY=0.5;entryDx=0;entryDy=0;" edge="1" parent="1" target="7OqduelqmPpx-q8XnIWb-19">
          <mxGeometry relative="1" as="geometry">
            <mxPoint x="720" y="260" as="sourcePoint" />
            <mxPoint x="880" y="260" as="targetPoint" />
          </mxGeometry>
        </mxCell>
        <mxCell id="7OqduelqmPpx-q8XnIWb-26" value="Coupon&amp;nbsp;" style="whiteSpace=wrap;html=1;align=center;" vertex="1" parent="1">
          <mxGeometry y="380" width="100" height="40" as="geometry" />
        </mxCell>
        <mxCell id="7OqduelqmPpx-q8XnIWb-27" value="id" style="ellipse;whiteSpace=wrap;html=1;align=center;fontStyle=4;" vertex="1" parent="1">
          <mxGeometry x="130" y="340" width="100" height="40" as="geometry" />
        </mxCell>
        <mxCell id="7OqduelqmPpx-q8XnIWb-28" value="percent" style="ellipse;whiteSpace=wrap;html=1;align=center;" vertex="1" parent="1">
          <mxGeometry x="130" y="420" width="100" height="40" as="geometry" />
        </mxCell>
        <mxCell id="7OqduelqmPpx-q8XnIWb-29" value="" style="endArrow=none;html=1;rounded=0;entryX=0;entryY=0.5;entryDx=0;entryDy=0;exitX=1;exitY=0.5;exitDx=0;exitDy=0;" edge="1" parent="1" source="7OqduelqmPpx-q8XnIWb-26" target="7OqduelqmPpx-q8XnIWb-27">
          <mxGeometry relative="1" as="geometry">
            <mxPoint x="50" y="350" as="sourcePoint" />
            <mxPoint x="194" y="350" as="targetPoint" />
          </mxGeometry>
        </mxCell>
        <mxCell id="7OqduelqmPpx-q8XnIWb-30" value="" style="endArrow=none;html=1;rounded=0;entryX=0;entryY=0.5;entryDx=0;entryDy=0;exitX=1;exitY=0.5;exitDx=0;exitDy=0;" edge="1" parent="1" source="7OqduelqmPpx-q8XnIWb-26" target="7OqduelqmPpx-q8XnIWb-28">
          <mxGeometry relative="1" as="geometry">
            <mxPoint x="50" y="350" as="sourcePoint" />
            <mxPoint x="210" y="350" as="targetPoint" />
          </mxGeometry>
        </mxCell>
        <mxCell id="7OqduelqmPpx-q8XnIWb-32" value="id customer FK" style="ellipse;whiteSpace=wrap;html=1;align=center;" vertex="1" parent="1">
          <mxGeometry x="130" y="380" width="100" height="40" as="geometry" />
        </mxCell>
        <mxCell id="7OqduelqmPpx-q8XnIWb-33" value="Нужно ли указывать foreign key в conceptual model?&amp;nbsp;&amp;nbsp;" style="text;strokeColor=none;fillColor=none;spacingLeft=4;spacingRight=4;overflow=hidden;rotatable=0;points=[[0,0.5],[1,0.5]];portConstraint=eastwest;fontSize=12;whiteSpace=wrap;html=1;" vertex="1" parent="1">
          <mxGeometry x="10" y="20" width="320" height="30" as="geometry" />
        </mxCell>
        <mxCell id="7OqduelqmPpx-q8XnIWb-34" value="Rental rates&amp;nbsp;" style="whiteSpace=wrap;html=1;align=center;" vertex="1" parent="1">
          <mxGeometry x="620" y="120" width="100" height="40" as="geometry" />
        </mxCell>
        <mxCell id="7OqduelqmPpx-q8XnIWb-36" value="id movie" style="ellipse;whiteSpace=wrap;html=1;align=center;fontStyle=4;" vertex="1" parent="1">
          <mxGeometry x="499.5" y="80" width="100" height="40" as="geometry" />
        </mxCell>
        <mxCell id="7OqduelqmPpx-q8XnIWb-37" value="date" style="ellipse;whiteSpace=wrap;html=1;align=center;fontStyle=4;" vertex="1" parent="1">
          <mxGeometry x="499.5" y="120" width="100" height="40" as="geometry" />
        </mxCell>
        <mxCell id="7OqduelqmPpx-q8XnIWb-38" value="daily rate charge" style="ellipse;whiteSpace=wrap;html=1;align=center;" vertex="1" parent="1">
          <mxGeometry x="499.5" y="160" width="100" height="40" as="geometry" />
        </mxCell>
        <mxCell id="7OqduelqmPpx-q8XnIWb-39" value="" style="endArrow=none;html=1;rounded=0;entryX=1;entryY=0.5;entryDx=0;entryDy=0;exitX=0;exitY=0.5;exitDx=0;exitDy=0;" edge="1" parent="1" source="7OqduelqmPpx-q8XnIWb-34" target="7OqduelqmPpx-q8XnIWb-36">
          <mxGeometry relative="1" as="geometry">
            <mxPoint x="920" y="149.5" as="sourcePoint" />
            <mxPoint x="1080" y="149.5" as="targetPoint" />
          </mxGeometry>
        </mxCell>
        <mxCell id="7OqduelqmPpx-q8XnIWb-40" value="" style="line;strokeWidth=1;rotatable=0;dashed=0;labelPosition=right;align=left;verticalAlign=middle;spacingTop=0;spacingLeft=6;points=[];portConstraint=eastwest;" vertex="1" parent="1">
          <mxGeometry x="599.5" y="135" width="20.5" height="10" as="geometry" />
        </mxCell>
        <mxCell id="7OqduelqmPpx-q8XnIWb-41" value="" style="endArrow=none;html=1;rounded=0;entryX=1;entryY=0.5;entryDx=0;entryDy=0;exitX=0;exitY=0.5;exitDx=0;exitDy=0;" edge="1" parent="1" source="7OqduelqmPpx-q8XnIWb-34" target="7OqduelqmPpx-q8XnIWb-38">
          <mxGeometry relative="1" as="geometry">
            <mxPoint x="920" y="149.5" as="sourcePoint" />
            <mxPoint x="1080" y="149.5" as="targetPoint" />
          </mxGeometry>
        </mxCell>
        <mxCell id="7OqduelqmPpx-q8XnIWb-42" value="Rentals&amp;nbsp;" style="whiteSpace=wrap;html=1;align=center;" vertex="1" parent="1">
          <mxGeometry x="220" y="240" width="100" height="40" as="geometry" />
        </mxCell>
        <mxCell id="7OqduelqmPpx-q8XnIWb-43" value="id movie FK" style="ellipse;whiteSpace=wrap;html=1;align=center;" vertex="1" parent="1">
          <mxGeometry x="382" y="210" width="100" height="40" as="geometry" />
        </mxCell>
        <mxCell id="7OqduelqmPpx-q8XnIWb-44" value="id" style="ellipse;whiteSpace=wrap;html=1;align=center;fontStyle=4;" vertex="1" parent="1">
          <mxGeometry x="380" y="130" width="100" height="40" as="geometry" />
        </mxCell>
        <mxCell id="7OqduelqmPpx-q8XnIWb-45" value="date issued" style="ellipse;whiteSpace=wrap;html=1;align=center;" vertex="1" parent="1">
          <mxGeometry x="382" y="250" width="100" height="40" as="geometry" />
        </mxCell>
        <mxCell id="7OqduelqmPpx-q8XnIWb-46" value="date returned" style="ellipse;whiteSpace=wrap;html=1;align=center;" vertex="1" parent="1">
          <mxGeometry x="382" y="290" width="100" height="40" as="geometry" />
        </mxCell>
        <mxCell id="7OqduelqmPpx-q8XnIWb-47" value="balance" style="ellipse;whiteSpace=wrap;html=1;align=center;dashed=1;" vertex="1" parent="1">
          <mxGeometry x="-140" y="310" width="100" height="40" as="geometry" />
        </mxCell>
        <mxCell id="7OqduelqmPpx-q8XnIWb-48" value="n of movies in rent&amp;nbsp;" style="ellipse;whiteSpace=wrap;html=1;align=center;dashed=1;" vertex="1" parent="1">
          <mxGeometry x="-140" y="350" width="100" height="40" as="geometry" />
        </mxCell>
        <mxCell id="7OqduelqmPpx-q8XnIWb-49" value="id customer FK" style="ellipse;whiteSpace=wrap;html=1;align=center;" vertex="1" parent="1">
          <mxGeometry x="382" y="170" width="100" height="40" as="geometry" />
        </mxCell>
        <mxCell id="7OqduelqmPpx-q8XnIWb-51" value="charge" style="ellipse;whiteSpace=wrap;html=1;align=center;dashed=1;" vertex="1" parent="1">
          <mxGeometry x="382" y="370" width="100" height="40" as="geometry" />
        </mxCell>
        <mxCell id="7OqduelqmPpx-q8XnIWb-52" value="id coupon&amp;nbsp;" style="ellipse;whiteSpace=wrap;html=1;align=center;" vertex="1" parent="1">
          <mxGeometry x="382" y="330" width="100" height="40" as="geometry" />
        </mxCell>
        <mxCell id="7OqduelqmPpx-q8XnIWb-53" value="" style="endArrow=none;html=1;rounded=0;entryX=0;entryY=0.5;entryDx=0;entryDy=0;" edge="1" parent="1" target="7OqduelqmPpx-q8XnIWb-44">
          <mxGeometry relative="1" as="geometry">
            <mxPoint x="320" y="260" as="sourcePoint" />
            <mxPoint x="480" y="260" as="targetPoint" />
          </mxGeometry>
        </mxCell>
        <mxCell id="7OqduelqmPpx-q8XnIWb-54" value="" style="endArrow=none;html=1;rounded=0;entryX=0;entryY=0.5;entryDx=0;entryDy=0;" edge="1" parent="1" target="7OqduelqmPpx-q8XnIWb-49">
          <mxGeometry relative="1" as="geometry">
            <mxPoint x="320" y="260" as="sourcePoint" />
            <mxPoint x="480" y="260" as="targetPoint" />
          </mxGeometry>
        </mxCell>
        <mxCell id="7OqduelqmPpx-q8XnIWb-55" value="" style="endArrow=none;html=1;rounded=0;" edge="1" parent="1">
          <mxGeometry relative="1" as="geometry">
            <mxPoint x="320" y="260" as="sourcePoint" />
            <mxPoint x="380" y="230" as="targetPoint" />
          </mxGeometry>
        </mxCell>
        <mxCell id="7OqduelqmPpx-q8XnIWb-56" value="" style="endArrow=none;html=1;rounded=0;exitX=1;exitY=0.5;exitDx=0;exitDy=0;entryX=0;entryY=0.5;entryDx=0;entryDy=0;" edge="1" parent="1" source="7OqduelqmPpx-q8XnIWb-42" target="7OqduelqmPpx-q8XnIWb-45">
          <mxGeometry relative="1" as="geometry">
            <mxPoint x="330" y="260" as="sourcePoint" />
            <mxPoint x="490" y="260" as="targetPoint" />
          </mxGeometry>
        </mxCell>
        <mxCell id="7OqduelqmPpx-q8XnIWb-57" value="" style="endArrow=none;html=1;rounded=0;exitX=1;exitY=0.5;exitDx=0;exitDy=0;entryX=0;entryY=0.5;entryDx=0;entryDy=0;" edge="1" parent="1" source="7OqduelqmPpx-q8XnIWb-42" target="7OqduelqmPpx-q8XnIWb-46">
          <mxGeometry relative="1" as="geometry">
            <mxPoint x="330" y="260" as="sourcePoint" />
            <mxPoint x="490" y="260" as="targetPoint" />
          </mxGeometry>
        </mxCell>
        <mxCell id="7OqduelqmPpx-q8XnIWb-58" value="" style="endArrow=none;html=1;rounded=0;entryX=0;entryY=0.5;entryDx=0;entryDy=0;" edge="1" parent="1" target="7OqduelqmPpx-q8XnIWb-52">
          <mxGeometry relative="1" as="geometry">
            <mxPoint x="320" y="260" as="sourcePoint" />
            <mxPoint x="480" y="260" as="targetPoint" />
          </mxGeometry>
        </mxCell>
        <mxCell id="7OqduelqmPpx-q8XnIWb-59" value="" style="endArrow=none;html=1;rounded=0;entryX=0;entryY=0.5;entryDx=0;entryDy=0;" edge="1" parent="1" target="7OqduelqmPpx-q8XnIWb-51">
          <mxGeometry relative="1" as="geometry">
            <mxPoint x="320" y="260" as="sourcePoint" />
            <mxPoint x="390" y="400" as="targetPoint" />
          </mxGeometry>
        </mxCell>
        <mxCell id="7OqduelqmPpx-q8XnIWb-62" value="" style="endArrow=none;html=1;rounded=0;entryX=0;entryY=0.5;entryDx=0;entryDy=0;exitX=1;exitY=0.5;exitDx=0;exitDy=0;" edge="1" parent="1" source="7OqduelqmPpx-q8XnIWb-47">
          <mxGeometry relative="1" as="geometry">
            <mxPoint x="-40" y="350" as="sourcePoint" />
            <mxPoint y="260" as="targetPoint" />
          </mxGeometry>
        </mxCell>
        <mxCell id="7OqduelqmPpx-q8XnIWb-63" value="" style="endArrow=none;html=1;rounded=0;exitX=1;exitY=0.5;exitDx=0;exitDy=0;" edge="1" parent="1" source="7OqduelqmPpx-q8XnIWb-48">
          <mxGeometry relative="1" as="geometry">
            <mxPoint x="-40" y="390" as="sourcePoint" />
            <mxPoint y="260" as="targetPoint" />
          </mxGeometry>
        </mxCell>
        <mxCell id="7OqduelqmPpx-q8XnIWb-67" value="makes rentals&amp;nbsp;" style="shape=rhombus;perimeter=rhombusPerimeter;whiteSpace=wrap;html=1;align=center;" vertex="1" parent="1">
          <mxGeometry x="120" y="230" width="80" height="60" as="geometry" />
        </mxCell>
        <mxCell id="7OqduelqmPpx-q8XnIWb-68" value="" style="endArrow=none;html=1;rounded=0;" edge="1" parent="1">
          <mxGeometry relative="1" as="geometry">
            <mxPoint x="330" y="260" as="sourcePoint" />
            <mxPoint x="490" y="260" as="targetPoint" />
          </mxGeometry>
        </mxCell>
        <mxCell id="7OqduelqmPpx-q8XnIWb-70" value="" style="endArrow=none;html=1;rounded=0;entryX=0;entryY=0.5;entryDx=0;entryDy=0;" edge="1" parent="1" source="7OqduelqmPpx-q8XnIWb-74" target="7OqduelqmPpx-q8XnIWb-2">
          <mxGeometry relative="1" as="geometry">
            <mxPoint x="334" y="259" as="sourcePoint" />
            <mxPoint x="494" y="259" as="targetPoint" />
          </mxGeometry>
        </mxCell>
        <mxCell id="7OqduelqmPpx-q8XnIWb-71" value="" style="endArrow=none;html=1;rounded=0;entryX=0;entryY=0.5;entryDx=0;entryDy=0;" edge="1" parent="1" target="7OqduelqmPpx-q8XnIWb-32">
          <mxGeometry relative="1" as="geometry">
            <mxPoint x="100" y="400" as="sourcePoint" />
            <mxPoint x="260" y="369.5" as="targetPoint" />
          </mxGeometry>
        </mxCell>
        <mxCell id="7OqduelqmPpx-q8XnIWb-72" value="" style="endArrow=none;html=1;rounded=0;" edge="1" parent="1">
          <mxGeometry relative="1" as="geometry">
            <mxPoint x="100" y="259" as="sourcePoint" />
            <mxPoint x="220" y="260" as="targetPoint" />
          </mxGeometry>
        </mxCell>
        <mxCell id="7OqduelqmPpx-q8XnIWb-75" value="" style="endArrow=none;html=1;rounded=0;entryX=0;entryY=0.5;entryDx=0;entryDy=0;" edge="1" parent="1" target="7OqduelqmPpx-q8XnIWb-74">
          <mxGeometry relative="1" as="geometry">
            <mxPoint x="334" y="259" as="sourcePoint" />
            <mxPoint x="620" y="260" as="targetPoint" />
          </mxGeometry>
        </mxCell>
        <mxCell id="7OqduelqmPpx-q8XnIWb-74" value="includes" style="shape=rhombus;perimeter=rhombusPerimeter;whiteSpace=wrap;html=1;align=center;" vertex="1" parent="1">
          <mxGeometry x="510" y="230" width="79" height="60" as="geometry" />
        </mxCell>
        <mxCell id="7OqduelqmPpx-q8XnIWb-77" value="gets&amp;nbsp;" style="shape=rhombus;perimeter=rhombusPerimeter;whiteSpace=wrap;html=1;align=center;" vertex="1" parent="1">
          <mxGeometry x="10" y="300" width="80" height="60" as="geometry" />
        </mxCell>
        <mxCell id="7OqduelqmPpx-q8XnIWb-78" value="has" style="shape=rhombus;perimeter=rhombusPerimeter;whiteSpace=wrap;html=1;align=center;" vertex="1" parent="1">
          <mxGeometry x="630" y="170" width="80" height="60" as="geometry" />
        </mxCell>
        <mxCell id="7OqduelqmPpx-q8XnIWb-80" value="" style="endArrow=none;html=1;rounded=0;" edge="1" parent="1">
          <mxGeometry relative="1" as="geometry">
            <mxPoint x="49.5" y="280" as="sourcePoint" />
            <mxPoint x="49.5" y="380" as="targetPoint" />
          </mxGeometry>
        </mxCell>
        <mxCell id="7OqduelqmPpx-q8XnIWb-81" value="" style="endArrow=none;html=1;rounded=0;exitX=0.5;exitY=0;exitDx=0;exitDy=0;entryX=0.5;entryY=1;entryDx=0;entryDy=0;" edge="1" parent="1" source="7OqduelqmPpx-q8XnIWb-2" target="7OqduelqmPpx-q8XnIWb-34">
          <mxGeometry relative="1" as="geometry">
            <mxPoint x="620" y="189" as="sourcePoint" />
            <mxPoint x="780" y="189" as="targetPoint" />
          </mxGeometry>
        </mxCell>
        <mxCell id="7OqduelqmPpx-q8XnIWb-82" value="Item" style="text;strokeColor=none;fillColor=none;spacingLeft=4;spacingRight=4;overflow=hidden;rotatable=0;points=[[0,0.5],[1,0.5]];portConstraint=eastwest;fontSize=12;whiteSpace=wrap;html=1;" vertex="1" parent="1">
          <mxGeometry x="470" y="330" width="40" height="30" as="geometry" />
        </mxCell>
        <mxCell id="7OqduelqmPpx-q8XnIWb-83" value="&lt;font face=&quot;Helvetica&quot; style=&quot;font-size: 18px;&quot;&gt;Rental movies shop&amp;nbsp;&lt;/font&gt;&lt;div&gt;&lt;font face=&quot;Helvetica&quot; size=&quot;3&quot;&gt;Conceptual data model&amp;nbsp;&lt;span style=&quot;background-color: rgb(255, 255, 255);&quot;&gt;Chen notation&lt;/span&gt;&lt;/font&gt;&lt;/div&gt;&lt;div&gt;&lt;font face=&quot;Helvetica&quot; size=&quot;3&quot;&gt;&lt;span style=&quot;background-color: rgb(255, 255, 255);&quot;&gt;draw.io&lt;/span&gt;&lt;/font&gt;&lt;/div&gt;" style="text;strokeColor=none;fillColor=none;spacingLeft=4;spacingRight=4;overflow=hidden;rotatable=0;points=[[0,0.5],[1,0.5]];portConstraint=eastwest;fontSize=12;whiteSpace=wrap;html=1;" vertex="1" parent="1">
          <mxGeometry x="520" y="470" width="370" height="70" as="geometry" />
        </mxCell>
      </root>
    </mxGraphModel>
  </diagram>
</mxfile>
